<svg width="22" height="22" viewBox="0 0 22 22" fill="none" xmlns="http://www.w3.org/2000/svg">
<path d="M5.34231 6.41669L7.66698 8.74044L6.37081 10.0375L1.83331 5.50002L6.37081 0.962524L7.66698 2.25961L5.34231 4.58336H11.9166C13.8616 4.58336 15.7268 5.35597 17.1021 6.73124C18.4774 8.10651 19.25 9.97177 19.25 11.9167C19.25 13.8616 18.4774 15.7269 17.1021 17.1021C15.7268 18.4774 13.8616 19.25 11.9166 19.25H3.66665V17.4167H11.9166C13.3753 17.4167 14.7743 16.8372 15.8057 15.8058C16.8372 14.7743 17.4166 13.3754 17.4166 11.9167C17.4166 10.458 16.8372 9.05905 15.8057 8.0276C14.7743 6.99615 13.3753 6.41669 11.9166 6.41669H5.34231Z" fill="#928F90"/>
</svg>
